<svg version="1.1" id="Layer_1" xmlns="http://www.w3.org/2000/svg" xmlns:xlink="http://www.w3.org/1999/xlink" x="0px" y="0px"
	 viewBox="0 0 595.3 581.1" enable-background="new 0 0 595.3 581.1" xml:space="preserve">
<filter  height="200%" width="200%" id="shadow" x="-50%" y="-50%">
	<feOffset  dy="0" dx="0" in="SourceAlpha" result="offOut"></feOffset>
	<feGaussianBlur  in="offOut" stdDeviation="3" result="blurOut"></feGaussianBlur>
	<feComponentTransfer  in="blurOut" result="opacityOut">
		<feFuncA  type="linear" slope="0.5"></feFuncA>
	</feComponentTransfer>
	<feBlend  in="SourceGraphic" in2="opacityOut" mode="normal"></feBlend>
</filter>
<g>
	<g filter="url(#shadow)">
		<polygon points="77.3,135.6 295.2,58.1 518,134.4 481.7,420.1 295.2,523 111.2,421.3 		"/>
	</g>
	<path fill="#DE3641" d="M77.3,135.6l217.9-77.5V523l-184-101.7L77.3,135.6z"/>
	<path fill="#B13138" d="M295.2,58.1L518,134.4l-36.3,285.7L295.2,523V58.1z"/>
</g>
<path fill="#FFFFFF" d="M295.2,319.4c-5.8-29.4-13.6-60.3-21.3-89.2l-26.1-89.1h-80.4l-17,266.9h55.8l4.8-101.4
	c2-33.3,3.2-74.4,4.8-110.5h0.8c6.3,34.8,15.4,72.9,24.2,104.1l28.5,103.3h26.1V319.4z"/>
<path opacity="0.9" fill="#FFFFFF" d="M351.5,141.1L323,229.8c-8.7,29.7-17.8,64.9-25.3,95.8h-1.2c-0.4-2.1-0.8-4.2-1.2-6.3v84.3h21
	l32.5-104.1c10.3-31.3,21.4-69.3,29.7-103.4h1.2c0,38.8,1.2,77.6,2.4,109.7l4,102.2h59l-14.7-266.9H351.5z"/>
</svg>
